<?xml version="1.0" encoding="UTF-8" standalone="no"?>
<!-- Created with Inkscape (http://www.inkscape.org/) -->

<svg
   width="210mm"
   height="297mm"
   viewBox="0 0 210 297"
   version="1.1"
   id="svg1"
   inkscape:version="1.3.2 (091e20e, 2023-11-25, custom)"
   sodipodi:docname="bumblebee.svg"
   xmlns:inkscape="http://www.inkscape.org/namespaces/inkscape"
   xmlns:sodipodi="http://sodipodi.sourceforge.net/DTD/sodipodi-0.dtd"
   xmlns="http://www.w3.org/2000/svg"
   xmlns:svg="http://www.w3.org/2000/svg">
  <sodipodi:namedview
     id="namedview1"
     pagecolor="#ffffff"
     bordercolor="#000000"
     borderopacity="0.25"
     inkscape:showpageshadow="2"
     inkscape:pageopacity="0.0"
     inkscape:pagecheckerboard="0"
     inkscape:deskcolor="#d1d1d1"
     inkscape:document-units="mm"
     inkscape:zoom="0.7011013"
     inkscape:cx="139.78009"
     inkscape:cy="494.22245"
     inkscape:window-width="1920"
     inkscape:window-height="1001"
     inkscape:window-x="-9"
     inkscape:window-y="-9"
     inkscape:window-maximized="1"
     inkscape:current-layer="layer1" />
  <defs
     id="defs1" />
  <g
     inkscape:label="Layer 1"
     inkscape:groupmode="layer"
     id="layer1">
    <path
       id="T1_l"
       style="fill:#5be2c8;stroke:#000000;stroke-width:0.264583;stroke-opacity:1;fill-opacity:1"
       d="m 80.580494,127.69528 c -3.700644,-0.92252 -5.235843,-0.90534 -7.273953,-0.70608 -4.18836,0.0637 -11.431649,5.08027 -12.597344,9.80061 l 19.748395,0.0412 z"
       sodipodi:nodetypes="ccccc"
       inkscape:label="T1 l" />
    <path
       id="T2_al"
       style="display:inline;fill:#5be2c8;fill-opacity:1;stroke:#000000;stroke-width:0.264583;stroke-opacity:1"
       d="m 76.595958,139.70533 -17.009717,0.15643 c -0.809354,2.19981 -2.180249,7.26093 -2.245161,11.57828 l 19.265545,-0.024 z"
       sodipodi:nodetypes="ccccc"
       inkscape:label="T2 al" />
    <path
       id="T2_pl"
       style="display:inline;fill:#5be2c8;fill-opacity:1;stroke:#000000;stroke-width:0.264583;stroke-opacity:1"
       d="m 76.607566,164.75317 -18.692359,0.0523 c -0.714533,-3.3858 -0.878212,-8.85001 -0.558293,-13.3414 l 19.245627,-0.0602 z"
       sodipodi:nodetypes="ccccc"
       inkscape:label="T2 pl" />
    <path
       id="T3_al"
       style="display:inline;fill:#e29a5b;fill-opacity:1;stroke:#000000;stroke-width:0.264583;stroke-opacity:1"
       d="m 80.642931,166.35127 -22.515446,0.0803 c 0.113644,3.93165 0.162802,6.67299 0.511126,10.74868 l 21.988826,-0.0215 z"
       sodipodi:nodetypes="ccccc"
       inkscape:label="T3 al" />
    <path
       id="T4_al"
       style="display:inline;fill:#e29a5b;fill-opacity:1;stroke:#000000;stroke-width:0.264583;stroke-opacity:1"
       d="m 84.203952,190.90144 -23.869478,-0.0274 c 0,0 0.107184,3.03994 0.816063,7.06545 0.254371,1.61248 0.642871,3.36679 1.069126,5.11514 l 21.973826,-0.0116 z"
       sodipodi:nodetypes="cccccc"
       inkscape:label="T4 al" />
    <path
       id="T4_pl"
       style="display:inline;fill:#e29a5b;fill-opacity:1;stroke:#000000;stroke-width:0.264583;stroke-opacity:1"
       d="m 84.260199,216.25218 -17.2067,0.0149 c -1.876717,-3.5429 -2.295463,-5.08423 -3.403735,-8.04035 -0.472615,-1.63496 -0.970236,-3.40052 -1.413296,-5.16045 h 22.000349 z"
       sodipodi:nodetypes="cccccc"
       inkscape:label="T4 pl" />
    <path
       id="T5_al"
       style="display:inline;fill:#b15be2;fill-opacity:1;stroke:#000000;stroke-width:0.264583;stroke-opacity:1"
       d="m 88.450064,217.85743 -20.747129,0.0332 c 1.340923,2.41673 3.346496,4.85906 7.147953,8.77696 l 13.607631,-0.008 z"
       sodipodi:nodetypes="ccccc"
       inkscape:label="T5 al" />
    <path
       id="T5_pl"
       style="display:inline;fill:#b15be2;fill-opacity:1;stroke:#000000;stroke-width:0.264583;stroke-opacity:1"
       d="m 88.453193,237.06652 -3.007041,-0.005 c 0,0 -6.868176,-6.45936 -10.591259,-10.38557 h 13.572425 z"
       sodipodi:nodetypes="ccccc"
       inkscape:label="T5 pl" />
    <path
       id="scutum_lr"
       style="display:inline;fill:#6aeb57;fill-opacity:1;stroke:#000000;stroke-width:0.264583;stroke-dasharray:none;stroke-opacity:1"
       d="m 115.54047,112.18791 -0.0167,-20.73175 -38.97375,-0.04344 0.05862,20.76209 z"
       sodipodi:nodetypes="ccccc"
       inkscape:label="scutum lr" />
    <path
       id="propodeum"
       style="fill:#f7d2d2;fill-opacity:1;stroke:#000000;stroke-width:0.264583;stroke-dasharray:none;stroke-opacity:1"
       d="m 114.20295,118.76922 c 0.56608,-0.75477 1.34124,-1.95837 1.33752,-6.58131 l -38.93183,-0.0131 c 0,4.62294 0.754765,5.85155 1.320837,6.60632 3.425998,6.80089 18.136738,9.12889 18.136738,9.12889 0,0 14.710745,-2.33991 18.136735,-9.1408 z"
       sodipodi:nodetypes="cccccc"
       inkscape:label="propodeum" />
    <path
       id="pronotum"
       style="fill:#ebeb57;fill-opacity:1;stroke:#000000;stroke-width:0.264583;stroke-dasharray:none;stroke-opacity:1"
       d="m 96.066215,91.500952 -19.516369,-0.08414 0.05879,-7.826596 1.69822,-0.188693 c 0,0 2.65675,-6.090185 8.113723,-8.585451 4.1389,-1.892562 9.645632,-2.597599 9.645632,-2.597599 0,0 5.506739,0.693123 9.645639,2.585685 5.45697,2.495266 8.11372,8.585451 8.11372,8.585451 l 1.69822,0.188693 2e-5,7.854274 z"
       sodipodi:nodetypes="ccccscscccc"
       inkscape:label="pronotum" />
    <path
       id="scutum_m"
       style="fill:#e5dc0f;fill-opacity:1;stroke:#000000;stroke-width:0.264583;stroke-dasharray:none;stroke-opacity:1"
       d="m 99.265498,111.59413 c 1.220432,-0.52666 1.725902,-0.63631 3.285772,-2.25947 1.77791,-1.85005 2.60187,-4.68612 2.26429,-8.30242 -0.34925,-3.612087 -0.79841,-4.108564 -1.38773,-5.292156 -0.58932,-1.183592 -1.88488,-2.205189 -2.88912,-2.905001 -2.008487,-1.399623 -4.472493,-1.22311 -4.472493,-1.22311 0,0 -2.464006,-0.164598 -4.472492,1.235025 -1.004242,0.699812 -2.299799,1.721409 -2.88912,2.905001 -0.589322,1.183592 -1.038478,1.680069 -1.387734,5.292151 -0.337576,3.6163 0.486381,6.45237 2.264296,8.30242 1.559869,1.62316 2.065335,1.73281 3.285769,2.25947 0.726941,0.38602 3.199281,0.69004 3.199281,0.69004 0,0 2.47234,-0.31593 3.199281,-0.70195 z"
       sodipodi:nodetypes="cscsscsscsccc"
       inkscape:label="scutum m" />
    <path
       id="head"
       style="fill:#000000;stroke:#000000;stroke-width:0.264583;stroke-opacity:1;fill-opacity:1"
       d="m 99.93747,69.814305 c 3.49577,0.09484 10.89738,3.976931 12.18988,3.57467 1.80818,-0.562752 3.89792,-2.357907 4.15121,-9.52891 0.12672,-3.587858 -0.9826,-7.24673 -1.60388,-8.962831 -1.15205,-3.182219 -4.81162,-5.849429 -4.81162,-5.849429 0,0 -2.82651,-4.468125 -5.56639,-5.566392 -3.41432,-1.368608 -8.230456,-0.909864 -8.230456,-0.909864 0,0 -4.816133,-0.446829 -8.230451,0.921779 -2.739889,1.098267 -5.566391,5.566392 -5.566391,5.566392 0,0 -3.659578,2.66721 -4.811626,5.849429 -0.621274,1.716101 -1.730598,5.374973 -1.603873,8.962831 0.253283,7.171003 2.343028,8.966158 4.151205,9.52891 1.292505,0.402261 8.694106,-3.47983 12.18988,-3.57467 2.400068,-0.09771 2.882525,-0.0834 3.871256,-0.04504 0.988731,-0.05028 1.471188,-0.06459 3.871256,0.03312 z"
       sodipodi:nodetypes="cssscscscsssccc"
       inkscape:label="head" />
    <path
       id="face"
       style="fill:#bbe50f;stroke:#000000;stroke-width:0.264583;stroke-opacity:1;fill-opacity:1"
       d="m 103.91928,44.519214 c 2.64168,1.792568 4.15121,3.962516 4.52859,4.622935 0.37738,0.660421 2.0756,6.415502 0.47173,9.811945 -1.83705,0.7613 -7.47264,0.158679 -9.659717,0.09435 l -3.193667,-0.08839 -3.193667,0.100307 c -2.187078,0.06433 -7.822669,0.66695 -9.659716,-0.09435 -1.603875,-3.396443 0.09435,-9.151524 0.471728,-9.811945 0.377383,-0.660419 1.886913,-2.830367 4.528589,-4.622935 2.641677,-1.792566 7.853066,-1.246512 7.853066,-1.246512 0,0 5.211384,-0.557969 7.853064,1.234597 z"
       sodipodi:nodetypes="sscscscsscs"
       inkscape:label="face" />
    <path
       id="vertex"
       style="fill:#bbe50f;stroke:#000000;stroke-width:0.264583;stroke-opacity:1;fill-opacity:1"
       d="m 103.81921,69.787162 c 3.35585,0.729532 4.72301,1.997935 4.25128,0.677096 -0.47173,-1.320837 -5.66074,-4.056861 -8.01938,-4.434244 -2.358639,-0.377383 -3.984897,-1.037568 -3.984897,-1.037568 0,0 -1.626259,0.6721 -3.9849,1.049483 -2.358639,0.377383 -7.547648,3.113407 -8.019376,4.434244 -0.471728,1.320839 0.895424,0.05244 4.251277,-0.677096 2.169948,-0.471724 5.660735,-0.660414 7.752999,-0.572031 2.092263,-0.100298 5.583047,0.08839 7.752997,0.560116 z"
       sodipodi:nodetypes="ssscssscs"
       inkscape:label="vertex" />
    <path
       id="mesosoma_al"
       style="fill:#e25b5b;fill-opacity:1;stroke:#000000;stroke-width:0.264583;stroke-dasharray:none;stroke-opacity:1"
       d="m 76.605461,84.506657 c 0,0 -6.114356,3.655893 -8.023265,13.770278 l 8.004042,0.0312 z"
       sodipodi:nodetypes="cccc"
       inkscape:label="mesosoma al" />
    <path
       id="mesosma_ar"
       style="fill:#e25b5b;fill-opacity:1;stroke:#000000;stroke-width:0.264583;stroke-dasharray:none;stroke-opacity:1"
       d="m 115.56301,84.609989 c 0,0 6.01748,3.629358 7.93785,13.674327 l -7.97706,0.0119 z"
       sodipodi:nodetypes="cccc"
       inkscape:label="mesosoma ar" />
    <path
       id="mesosoma_pl"
       style="fill:#e25b5b;fill-opacity:1;stroke:#000000;stroke-width:0.264583;stroke-opacity:1"
       d="m 76.629042,113.94249 c 0,0 -7.854011,-1.18946 -8.320105,-10.45467 -0.02669,-1.39082 -0.165104,-1.69822 0.273277,-5.205221 l 8.003648,0.03484 z"
       sodipodi:nodetypes="ccccc"
       inkscape:label="mesosoma pl" />
    <path
       id="mesosoma_pr"
       style="fill:#e25b5b;fill-opacity:1;stroke:#000000;stroke-width:0.264583;stroke-opacity:1"
       d="m 115.4562,113.97933 c 0,0 7.83632,-1.20715 8.30242,-10.47236 0.0267,-1.39082 0.1651,-1.69822 -0.27163,-5.223411 l -7.96079,9.83e-4 z"
       sodipodi:nodetypes="ccccc"
       inkscape:label="mesosoma pr" />
    <path
       id="T3_pl"
       style="display:inline;fill:#e29a5b;fill-opacity:1;stroke:#000000;stroke-width:0.264583;stroke-opacity:1"
       d="M 80.596946,177.21323 58.555395,177.195 c 0.362309,4.10399 1.445922,11.46595 1.445922,11.46595 l 20.610179,-0.011 z"
       sodipodi:nodetypes="ccccc"
       inkscape:label="T3 pl" />
    <path
       id="T6"
       style="fill:#b15be2;stroke:#000000;stroke-width:0.264583;stroke-opacity:1;fill-opacity:1"
       d="m 96.075275,244.94372 c 0,0 -2.226414,-1.45899 -7.977305,-5.89751 l 7.968245,0.0156 7.977305,-0.0255 c -5.741831,4.44053 -7.968245,5.90739 -7.968245,5.90739 z"
       sodipodi:nodetypes="ccccc"
       inkscape:label="T6" />
    <path
       id="T1_r"
       style="display:inline;fill:#5be2c8;fill-opacity:1;stroke:#000000;stroke-width:0.264583;stroke-opacity:1"
       d="m 111.53378,127.72705 c 3.70065,-0.92252 5.23585,-0.90534 7.27396,-0.70608 4.18836,0.0637 11.43164,5.08027 12.59734,9.80061 l -19.7484,0.0412 z"
       sodipodi:nodetypes="ccccc"
       inkscape:label="T1 r" />
    <path
       id="T2_ar"
       style="display:inline;fill:#5be2c8;fill-opacity:1;stroke:#000000;stroke-width:0.264583;stroke-opacity:1"
       d="m 115.51832,139.7371 17.00972,0.15643 c 0.80935,2.19981 2.18024,7.26093 2.24516,11.57828 l -19.26555,-0.024 z"
       sodipodi:nodetypes="ccccc"
       inkscape:label="T2 ar" />
    <path
       id="T2_pr"
       style="display:inline;fill:#5be2c8;fill-opacity:1;stroke:#000000;stroke-width:0.264583;stroke-opacity:1"
       d="m 115.50671,164.78494 18.69236,0.0523 c 0.71453,-3.3858 0.87821,-8.85001 0.55829,-13.3414 l -19.24562,-0.0602 z"
       sodipodi:nodetypes="ccccc"
       inkscape:label="T2 pr" />
    <path
       id="T3_ar"
       style="display:inline;fill:#e29a5b;fill-opacity:1;stroke:#000000;stroke-width:0.264583;stroke-opacity:1"
       d="m 111.47135,166.38304 22.51544,0.0803 c -0.11364,3.93165 -0.1628,6.67299 -0.51112,10.74868 l -21.98883,-0.0215 z"
       sodipodi:nodetypes="ccccc"
       inkscape:label="T3 ar" />
    <path
       id="T4_ar"
       style="display:inline;fill:#e29a5b;fill-opacity:1;stroke:#000000;stroke-width:0.264583;stroke-opacity:1"
       d="m 107.91032,190.93321 23.86948,-0.0274 c 0,0 -0.10718,3.03994 -0.81606,7.06545 -0.25437,1.61248 -0.64287,3.36679 -1.06913,5.11514 l -21.97382,-0.0116 z"
       sodipodi:nodetypes="cccccc"
       inkscape:label="T4 ar" />
    <path
       id="T4_pr"
       style="display:inline;fill:#e29a5b;fill-opacity:1;stroke:#000000;stroke-width:0.264583;stroke-opacity:1"
       d="m 107.85408,216.28395 17.2067,0.0149 c 1.87671,-3.5429 2.29546,-5.08423 3.40373,-8.04035 0.47262,-1.63496 0.97024,-3.40052 1.4133,-5.16045 h -22.00035 z"
       sodipodi:nodetypes="cccccc"
       inkscape:label="T4 pr" />
    <path
       id="T1_m"
       style="display:inline;fill:#dfe25b;fill-opacity:1;stroke:#000000;stroke-width:0.264583;stroke-opacity:1"
       inkscape:highlight-color="#000000"
       d="m 111.65002,136.85668 -0.14459,-9.12575 c -3.75249,0.87459 -15.448298,5.08526 -15.448298,5.08526 0,0 -11.695802,-4.24244 -15.448288,-5.11703 l -0.144596,9.12575 15.592884,0.0169 z"
       sodipodi:nodetypes="ccccccc"
       inkscape:label="T1 m" />
    <path
       id="T2_am"
       style="display:inline;fill:#e2e25b;fill-opacity:1;stroke:#000000;stroke-width:0.264583;stroke-dasharray:none;stroke-opacity:1"
       d="m 115.50907,151.47203 0.0387,-11.66664 -19.490635,0.0102 -19.490631,-0.042 0.03869,11.66664 19.451938,-0.008 z"
       sodipodi:nodetypes="ccccccc"
       inkscape:label="T2 am" />
    <path
       id="T3_pm"
       style="display:inline;fill:#e29a5b;fill-opacity:1;stroke:#000000;stroke-width:0.264583;stroke-dasharray:none;stroke-opacity:1"
       d="m 111.50395,188.67041 -0.008,-11.50405 -15.438813,0.007 -15.438808,-0.0388 -0.0076,11.50405 15.446608,0.0109 z"
       sodipodi:nodetypes="ccccccc"
       inkscape:label="T3 pm" />
    <path
       id="T3_am"
       style="display:inline;fill:#e29a5b;fill-opacity:1;stroke:#000000;stroke-width:0.264583;stroke-dasharray:none;stroke-opacity:1"
       d="m 111.49165,177.17842 -0.008,-10.75817 -15.426513,-0.0531 -15.426507,0.0213 -0.0077,10.75817 15.434361,0.028 z"
       sodipodi:nodetypes="ccccccc"
       inkscape:label="T3 am" />
    <path
       id="T4_pm"
       style="display:inline;fill:#e29a5b;fill-opacity:1;stroke:#000000;stroke-width:0.264583;stroke-dasharray:none;stroke-opacity:1"
       d="m 107.85305,216.2987 -0.0344,-13.20463 -11.761521,-0.0936 -11.761523,0.0618 -0.03438,13.20463 11.795909,0.001 z"
       sodipodi:nodetypes="ccccccc"
       inkscape:label="T4 pm" />
    <path
       id="T4_am"
       style="display:inline;fill:#e29a5b;fill-opacity:1;stroke:#000000;stroke-width:0.264583;stroke-dasharray:none;stroke-opacity:1"
       d="m 107.8695,203.08449 -0.005,-12.06728 -11.807363,-0.0999 -11.807362,0.0681 -0.0052,12.06728 11.812458,0.006 z"
       sodipodi:nodetypes="ccccccc"
       inkscape:label="T4 am" />
    <path
       id="T2_pm"
       style="display:inline;fill:#e2e25b;fill-opacity:1;stroke:#000000;stroke-width:0.264583;stroke-opacity:1"
       d="m 115.50861,164.76912 0.0567,-13.29897 -19.508178,-0.0501 -19.508172,0.0183 0.05674,13.29897 19.451456,0.0287 z"
       sodipodi:nodetypes="ccccccc"
       inkscape:label="T2 pm" />
    <path
       id="T3_pr"
       style="display:inline;fill:#e29a5b;fill-opacity:1;stroke:#000000;stroke-width:0.264583;stroke-opacity:1"
       d="m 111.51733,177.245 22.04155,-0.0182 c -0.36231,4.10399 -1.44592,11.46595 -1.44592,11.46595 l -20.61018,-0.011 z"
       sodipodi:nodetypes="ccccc"
       inkscape:label="T3 pr" />
    <path
       id="T5_ar"
       style="display:inline;fill:#b15be2;fill-opacity:1;stroke:#000000;stroke-width:0.264583;stroke-opacity:1"
       d="m 103.64497,217.85643 20.74713,0.0332 c -1.34092,2.41673 -3.3465,4.85906 -7.14795,8.77696 l -13.60763,-0.008 z"
       sodipodi:nodetypes="ccccc"
       inkscape:label="T5 ar" />
    <path
       id="T5_pr"
       style="display:inline;fill:#b15be2;fill-opacity:1;stroke:#000000;stroke-width:0.264583;stroke-opacity:1"
       d="m 103.64184,237.06552 3.00704,-0.005 c 0,0 6.86818,-6.45936 10.59126,-10.38557 h -13.57242 z"
       sodipodi:nodetypes="ccccc"
       inkscape:label="T5 pr" />
    <path
       id="T5_pm"
       style="fill:#b15be2;fill-opacity:1;stroke:#000000;stroke-width:0.264583;stroke-dasharray:none;stroke-opacity:1"
       d="m 103.63806,237.07149 -0.004,-10.4174 -7.586687,0.0105 -7.586696,-0.01 -0.0037,10.4174 7.590546,-0.006 z"
       sodipodi:nodetypes="ccccccc"
       inkscape:label="T5 pm" />
    <path
       id="T5_am"
       style="fill:#b15be2;fill-opacity:1;stroke:#000000;stroke-width:0.264583;stroke-dasharray:none;stroke-opacity:1"
       d="m 103.66205,226.65648 -0.008,-8.78936 -7.606541,-0.0142 -7.60655,0.0152 -0.008,8.78936 7.61455,0.002 z"
       sodipodi:nodetypes="ccccccc"
       inkscape:label="T5 am" />
  </g>
  <g
     inkscape:groupmode="layer"
     id="layer2"
     inkscape:label="tegulae">
    <ellipse
       style="fill:#000000;fill-opacity:1;stroke:#000000;stroke-width:0.264583;stroke-dasharray:none;stroke-opacity:1"
       id="tegula_l"
       cx="75.665184"
       cy="99.298767"
       rx="1.0378017"
       ry="1.0849745"
       inkscape:label="tegula l" />
    <ellipse
       style="fill:#000000;fill-opacity:1;stroke:#000000;stroke-width:0.264583;stroke-dasharray:none;stroke-opacity:1"
       id="tegula_r"
       cx="-116.46725"
       cy="99.28685"
       rx="1.0378017"
       ry="1.0849745"
       transform="scale(-1,1)"
       inkscape:label="tegula r" />
  </g>
</svg>
